<?xml version="1.0" encoding="utf-8"?>
<!-- Generator: Adobe Illustrator 25.0.0, SVG Export Plug-In . SVG Version: 6.00 Build 0)  -->
<svg version="1.1" id="Layer_1" xmlns="http://www.w3.org/2000/svg" xmlns:xlink="http://www.w3.org/1999/xlink" x="0px" y="0px"
	 viewBox="0 0 436.57 97.55" style="enable-background:new 0 0 436.57 97.55;" xml:space="preserve">
<style type="text/css">
	.st0{fill:#192D30;}
</style>
<g>
	<g>
		<path class="st0" d="M60.7,78.31l-3.19-1.27c-1.96-0.76-3.2-2.85-2.44-4.81L80.81,2.54c0.76-1.96,3.22-3.06,5.18-2.3l3.77,1.45
			c1.96,0.76,2.94,2.96,2.23,4.81l-26.32,69.5C64.87,78.09,62.66,79.07,60.7,78.31z"/>
	</g>
</g>
<g>
	<g>
		<path class="st0" d="M41.25,17.2l-7.36,19.23H21.76l8.95-23.28c0.78-1.92,2.94-2.88,4.95-2.16l3.41,1.26
			C41.07,13.02,42.02,15.2,41.25,17.2z"/>
		<path class="st0" d="M144.82,73.43c-2.69,5.65-7.41,9.71-12.13,14.64c-5.01,5.23-16.47,9.1-25.23,9.1
			c-8.23,0-14.12-5.91-15.24-10.5c-1.35-5.45,0-13.24,3.79-21.65c3.19-7.07,0.21-12.97-4.49-14.71c-8.36-3.1-17.48,4-24.06,21.85
			c-6.67,18.11-19.98,25.48-36.82,25.02C9.36,96.59,7.98,77.34,13.02,62.51c2.82-8.28,9.82-29.62,9.82-29.62l13.26-2.51
			c0,0-10.69,29.4-12.69,37.74c-2.26,9.43-1.93,18.63,8.76,18.63c12.6,0,18.85-5.4,30.56-29.6c8.03-16.59,25.8-19.4,33.03-17.61
			c11.43,2.84,16.08,15.51,10.81,28.79c-4.88,12.32-3.23,17.86,1.83,18.5c8.85,1.13,22.33-7.54,26.31-19.97
			c0.58-1.82,2.33-0.51,4.14,0.08l3.89,1.29C144.93,68.98,145.8,71.36,144.82,73.43z"/>
	</g>
</g>
<g>
	<g>
		<path class="st0" d="M232.81,97.55c-4.98,0-11.74-1.2-15.62-6.94c-3.84-5.68-3.63-13.96,0.63-24.61L226,44.88
			c0.76-1.96,2.97-2.94,4.93-2.18l3.76,1.46c1.96,0.76,2.94,2.97,2.18,4.93l-8.21,21.21c-3.05,7.62-1.72,15.8,4.48,16.53
			c10.04,1.18,25.95-10.58,29.9-20.82l6.3-16.04c0.77-1.96,2.98-2.92,4.94-2.16l3.42,1.32c1.96,0.77,2.92,2.98,2.15,4.94
			l-6.19,15.76C268.9,83.05,248.89,97.55,232.81,97.55z"/>
	</g>
</g>
<g>
	<g>
		<path class="st0" d="M277.69,97.55c-5,0-11.82-1.69-15.72-7.44c-3.38-4.99-3.57-11.5-0.71-20.32c0.68-2.09,3-3.15,5.03-2.33
			l3.76,1.5c1.85,0.74,3.72,0.73,2.91,2.55c-3.49,7.77-2.19,15.53,4.81,15.44c9.9-0.12,23.22-11.06,28.48-20.33
			c0.93-1.64,2.05-0.42,3.81,0.26l3.8,1.46c2.15,0.83,3.08,3.36,1.98,5.39c-3.11,5.72-8.22,9.07-13.59,14.44
			C296.56,93.86,285.38,97.55,277.69,97.55z"/>
	</g>
</g>
<g>
	<g>
		<path class="st0" d="M189.27,97.55c-4.98,0-11.74-1.2-15.62-6.94c-3.84-5.68-3.63-13.96,0.63-24.61l9.79-20.58
			c0.76-1.96,2.97-2.94,4.93-2.18l2.15,0.91c1.96,0.76,2.8,2.66,2.04,4.62l-8.85,21.88c-3.05,7.62-1.99,15.85,4.62,16.7
			c10.84,1.4,24.92-11.13,29.01-21.75L239.61,9c0.76-1.97,2.96-2.95,4.93-2.19l3.77,1.45c1.97,0.76,2.95,2.96,2.19,4.93
			l-21.63,56.61C223.06,84.84,204.93,97.55,189.27,97.55z"/>
	</g>
</g>
<g>
	<g>
		<path class="st0" d="M44.99,36.63v3.75c0,2.09-1.74,3.82-3.91,3.82H31l4.52-11.3h5.56C43.25,32.9,44.99,34.55,44.99,36.63z"/>
		<path class="st0" d="M23.01,32.9l-0.32,10.35H8.67c-2.08,0-3.82-1.74-3.82-3.82v-2.79c0-2.09,1.74-3.74,3.82-3.74H23.01z"/>
		<polygon class="st0" points="35.52,32.89 31.01,44.2 31.01,44.21 20.44,44.85 23.01,32.89 		"/>
	</g>
</g>
<g>
	<g>
		<path class="st0" d="M153.77,97.17c-9.96,0.84-18.17-3.7-19.79-12.21c-1.45-7.63-1.16-16.42,4.33-27.06l0,0
			c9.18-17.8,22.47-25.31,34.67-19.6c11.88,5.56,12.55,22.18,7.39,36.21C175.38,88.1,163.68,96.34,153.77,97.17z M171.01,49.5
			c-8.03-4.21-15,0.1-21.17,10.58c-4.16,7.05-6.21,16.85-4.76,20.91c0.86,2.42,2.66,4.67,5.95,5.61c8.26,2.37,17.12-6.87,21.1-15.69
			C176.11,62.09,177.27,52.79,171.01,49.5z"/>
	</g>
</g>
<g>
	<g>
		<path class="st0" d="M323.48,97.55c-11.97,0-16.11-6.95-18.03-12.34c-2.56-7.17-1.13-16.08,4.24-26.51
			c9-17.44,22.72-23.52,34.68-17.92c11.64,5.45,12.45,25.41,7.15,37.09C345.65,90.79,333.93,97.55,323.48,97.55z M336.53,49.03
			c-9.65-0.87-15.13,10.89-17.76,16.21c-4.43,8.95-5.67,22.75,5.91,23.24c9.03,0.38,16.13-9.83,19.18-18.8
			C347.3,59.57,346.71,49.95,336.53,49.03z"/>
	</g>
</g>
<g>
	<g>
		<path class="st0" d="M281.1,41.68l-4.02-1.63c-1.96-0.76-2.94-2.97-2.17-4.93l1.77-4.55c0.76-1.96,2.97-2.94,4.93-2.17l4.02,1.63
			c1.96,0.76,2.94,2.97,2.17,4.93l-1.77,4.55C285.27,41.47,283.06,42.44,281.1,41.68z"/>
	</g>
</g>
<g>
	<g>
		<path class="st0" d="M387.71,45.7l-3.74-1.46c-1.8-0.7-2.7-2.73-2-4.54l2.51-6.78c0.7-1.8,2.73-2.7,4.54-2l3.74,1.46
			c1.8,0.7,2.7,2.73,2,4.54l-2.51,6.78C391.55,45.51,389.52,46.4,387.71,45.7z"/>
	</g>
</g>
<path class="st0" d="M399.81,91.1c0.43-1.17,1.13-3.21,1.54-4.11s2.31-2.27,4.35-1.17c6.45,3.5,12.61,2.08,16.66-1.13
	c6.22-4.93,3.92-19.6-0.25-28.26c-1.18-2.47-2.29-1.06-4.12,1.44c-4.86,6.63-27.32,39.68-57.79,39.68c-4.98,0-11.74-1.2-15.62-6.94
	c-3.84-5.68-3.63-13.96,0.63-24.61l9.55-20.48c0.76-1.96,2.97-2.94,4.93-2.18l2.1,0.74c1.96,0.76,2.79,2.87,2.03,4.84
	c0,0-6.55,14.77-9.46,22.36c-3.98,10.39-0.51,16.47,7.89,16.13c19.96-0.81,49.98-38.25,58.44-48.95c3.25-4.11,6.48,1.34,9.17,8.58
	c4.94,13.28,7.31,20.62,6.57,32.01c-0.58,8.84-4.92,15.47-14.02,17.57c-6.3,1.45-14.4,1.13-20.69-1.58
	C400.64,94.58,399.16,92.87,399.81,91.1z"/>
</svg>
